<?xml version="1.0" encoding="UTF-8" standalone="no"?>
<!DOCTYPE svg PUBLIC "-//W3C//DTD SVG 1.1//EN" "http://www.w3.org/Graphics/SVG/1.1/DTD/svg11.dtd">
<svg width="80px" height="100%" viewBox="0 0 2735 1150" version="1.1" xmlns="http://www.w3.org/2000/svg" xmlns:xlink="http://www.w3.org/1999/xlink" xml:space="preserve" xmlns:serif="http://www.serif.com/" style="fill-rule:evenodd;clip-rule:evenodd;stroke-linejoin:round;stroke-miterlimit:2;">
    <g id="Artboard1" transform="matrix(1,0,0,1,-364.868,-618.565)">
        <rect x="364.868" y="618.565" width="2734.68" height="1149.05" style="fill:none;"/>
        <g transform="matrix(1,0,0,1,-71.9287,277.785)">
            <g>
                <g transform="matrix(618.039,0,0,618.039,570.303,1106.86)">
                    <path d="M0.53,-0.119C0.506,-0.077 0.474,-0.044 0.436,-0.02C0.397,0.004 0.349,0.016 0.294,0.016C0.256,0.016 0.221,0.01 0.189,-0.004C0.156,-0.017 0.128,-0.035 0.104,-0.058C0.08,-0.081 0.061,-0.109 0.048,-0.141C0.035,-0.172 0.028,-0.207 0.028,-0.245C0.028,-0.28 0.035,-0.314 0.048,-0.346C0.061,-0.377 0.08,-0.405 0.104,-0.429C0.127,-0.452 0.155,-0.471 0.187,-0.485C0.218,-0.499 0.253,-0.506 0.29,-0.506C0.331,-0.506 0.367,-0.499 0.398,-0.486C0.429,-0.473 0.454,-0.455 0.475,-0.432C0.496,-0.409 0.511,-0.382 0.522,-0.351C0.533,-0.32 0.538,-0.286 0.538,-0.251C0.538,-0.246 0.538,-0.24 0.538,-0.235C0.537,-0.23 0.537,-0.225 0.536,-0.221C0.535,-0.216 0.535,-0.212 0.535,-0.208L0.174,-0.208C0.181,-0.176 0.196,-0.153 0.219,-0.138C0.242,-0.123 0.267,-0.116 0.295,-0.116C0.323,-0.116 0.346,-0.122 0.365,-0.134C0.383,-0.146 0.397,-0.161 0.408,-0.18L0.53,-0.119ZM0.397,-0.31C0.396,-0.318 0.393,-0.327 0.388,-0.336C0.383,-0.345 0.376,-0.354 0.367,-0.362C0.358,-0.369 0.346,-0.376 0.334,-0.381C0.321,-0.386 0.306,-0.388 0.29,-0.388C0.267,-0.388 0.245,-0.381 0.225,-0.368C0.205,-0.355 0.19,-0.335 0.181,-0.31L0.397,-0.31Z" style="fill:rgb(32,34,75);fill-rule:nonzero;"/>
                </g>
                <g transform="matrix(618.039,0,0,618.039,888.113,1117.86)">
                    <path d="M0.206,-0.428C0.239,-0.48 0.289,-0.506 0.356,-0.506C0.417,-0.506 0.463,-0.486 0.493,-0.447C0.523,-0.408 0.538,-0.356 0.538,-0.292L0.538,-0L0.388,-0L0.388,-0.275C0.388,-0.302 0.382,-0.324 0.369,-0.341C0.356,-0.358 0.337,-0.366 0.31,-0.366C0.276,-0.366 0.25,-0.353 0.233,-0.327C0.215,-0.301 0.206,-0.267 0.206,-0.225L0.206,-0L0.056,-0L0.056,-0.49L0.196,-0.49L0.206,-0.428Z" style="fill:rgb(32,34,75);fill-rule:nonzero;"/>
                </g>
                <g transform="matrix(618.039,0,0,618.039,1222.67,1106.86)">
                    <path d="M0.258,0.016C0.224,0.016 0.194,0.012 0.168,0.004C0.142,-0.004 0.12,-0.014 0.101,-0.028C0.082,-0.041 0.066,-0.055 0.053,-0.073C0.04,-0.09 0.031,-0.107 0.024,-0.124L0.159,-0.181C0.168,-0.158 0.181,-0.142 0.198,-0.132C0.215,-0.121 0.235,-0.116 0.258,-0.116C0.278,-0.116 0.294,-0.119 0.305,-0.126C0.316,-0.132 0.321,-0.14 0.321,-0.15C0.321,-0.161 0.316,-0.17 0.305,-0.177C0.294,-0.183 0.277,-0.189 0.254,-0.194L0.187,-0.208C0.171,-0.211 0.155,-0.217 0.138,-0.224C0.121,-0.231 0.106,-0.241 0.092,-0.253C0.078,-0.265 0.067,-0.279 0.058,-0.296C0.049,-0.312 0.045,-0.331 0.045,-0.352C0.045,-0.375 0.05,-0.397 0.061,-0.416C0.071,-0.435 0.085,-0.451 0.103,-0.464C0.121,-0.477 0.142,-0.488 0.167,-0.495C0.192,-0.502 0.219,-0.506 0.248,-0.506C0.299,-0.506 0.342,-0.497 0.379,-0.48C0.416,-0.462 0.443,-0.432 0.462,-0.391L0.333,-0.338C0.324,-0.355 0.312,-0.368 0.297,-0.376C0.281,-0.384 0.265,-0.388 0.249,-0.388C0.232,-0.388 0.218,-0.385 0.207,-0.379C0.196,-0.373 0.191,-0.366 0.191,-0.357C0.191,-0.348 0.197,-0.34 0.208,-0.335C0.219,-0.329 0.232,-0.324 0.248,-0.32L0.324,-0.302C0.374,-0.29 0.411,-0.271 0.436,-0.244C0.461,-0.217 0.473,-0.186 0.473,-0.15C0.473,-0.128 0.468,-0.107 0.458,-0.087C0.447,-0.067 0.433,-0.049 0.414,-0.034C0.395,-0.019 0.372,-0.007 0.346,0.003C0.319,0.012 0.29,0.016 0.258,0.016Z" style="fill:rgb(32,34,75);fill-rule:nonzero;"/>
                </g>
                <g transform="matrix(1,0,0,1,-91,11)">
                    <path d="M1625.3,1106.86L1625.3,804.017L1718,804.017L1718,1106.86L1625.3,1106.86ZM1729.74,712.013C1729.74,712.19 1729.74,712.369 1729.74,712.547C1729.74,720.788 1728.2,728.41 1725.11,735.415C1722.02,742.419 1717.9,748.497 1712.75,753.647C1707.6,758.797 1701.42,762.917 1694.21,766.008C1687,769.098 1679.48,770.643 1671.65,770.643C1663.41,770.643 1655.79,769.098 1648.78,766.008C1641.78,762.917 1635.7,758.797 1630.55,753.647C1625.4,748.497 1621.28,742.419 1618.19,735.415C1615.1,728.41 1613.55,720.788 1613.55,712.547C1613.55,712.369 1613.55,712.19 1613.56,712.013L1729.74,712.013Z" style="fill:rgb(32,34,75);fill-rule:nonzero;"/>
                </g>
                <g transform="matrix(618.039,0,0,618.039,1631.47,1118.86)">
                    <path d="M0.11,-0.364L0.024,-0.364L0.024,-0.49L0.11,-0.49L0.11,-0.64L0.26,-0.64L0.26,-0.49L0.381,-0.49L0.381,-0.364L0.26,-0.364L0.252,-0C0.251,0 0.11,-0.001 0.11,-0L0.11,-0.364Z" style="fill:rgb(32,34,75);fill-rule:nonzero;"/>
                </g>
                <g transform="matrix(618.039,0,0,618.039,1855.04,1106.86)">
                    <path d="M0.53,-0.119C0.506,-0.077 0.474,-0.044 0.436,-0.02C0.397,0.004 0.349,0.016 0.294,0.016C0.256,0.016 0.221,0.01 0.189,-0.004C0.156,-0.017 0.128,-0.035 0.104,-0.058C0.08,-0.081 0.061,-0.109 0.048,-0.141C0.035,-0.172 0.028,-0.207 0.028,-0.245C0.028,-0.28 0.035,-0.314 0.048,-0.346C0.061,-0.377 0.08,-0.405 0.104,-0.429C0.127,-0.452 0.155,-0.471 0.187,-0.485C0.218,-0.499 0.253,-0.506 0.29,-0.506C0.331,-0.506 0.367,-0.499 0.398,-0.486C0.429,-0.473 0.454,-0.455 0.475,-0.432C0.496,-0.409 0.511,-0.382 0.522,-0.351C0.533,-0.32 0.538,-0.286 0.538,-0.251C0.538,-0.246 0.538,-0.24 0.538,-0.235C0.537,-0.23 0.537,-0.225 0.536,-0.221C0.535,-0.216 0.535,-0.212 0.535,-0.208L0.174,-0.208C0.181,-0.176 0.196,-0.153 0.219,-0.138C0.242,-0.123 0.267,-0.116 0.295,-0.116C0.323,-0.116 0.346,-0.122 0.365,-0.134C0.383,-0.146 0.397,-0.161 0.408,-0.18L0.53,-0.119ZM0.397,-0.31C0.396,-0.318 0.393,-0.327 0.388,-0.336C0.383,-0.345 0.376,-0.354 0.367,-0.362C0.358,-0.369 0.346,-0.376 0.334,-0.381C0.321,-0.386 0.306,-0.388 0.29,-0.388C0.267,-0.388 0.245,-0.381 0.225,-0.368C0.205,-0.355 0.19,-0.335 0.181,-0.31L0.397,-0.31Z" style="fill:rgb(32,34,75);fill-rule:nonzero;"/>
                </g>
            </g>
        </g>
        <g transform="matrix(0.871077,0,0,0.824037,195.661,465.56)">
            <path d="M3212.43,723.296C3212.43,683.49 3181.86,651.172 3144.2,651.172L2329.96,651.172C2292.3,651.172 2261.73,683.49 2261.73,723.296L2261.73,1154.13C2261.73,1193.94 2292.3,1226.26 2329.96,1226.26L3144.2,1226.26C3181.86,1226.26 3212.43,1193.94 3212.43,1154.13L3212.43,723.296Z" style="fill:rgb(94,64,191);"/>
        </g>
        <g transform="matrix(1,0,0,1,843.607,-484.971)">
            <text x="1412.41px" y="1872.02px" style="font-family:'ProductSans-Medium', 'Product Sans Medium', sans-serif;font-weight:500;font-size:433.333px;fill:white;">p<tspan x="1663.31px 1817.14px " y="1872.02px 1872.02px ">ro</tspan></text>
        </g>
    </g>
</svg>
